<svg width="16" height="12" viewBox="0 0 16 12" fill="none" xmlns="http://www.w3.org/2000/svg">
<path d="M15.4997 1.41989C14.9477 1.66081 14.3553 1.82421 13.7329 1.89716C14.3684 1.52235 14.8549 0.927868 15.0854 0.221667C14.4893 0.568757 13.8313 0.820788 13.1302 0.957413C12.5688 0.367537 11.7702 0.00012207 10.8844 0.00012207C9.18506 0.00012207 7.80721 1.35713 7.80721 3.02984C7.80721 3.26707 7.83439 3.49878 7.88689 3.72035C5.32992 3.59386 3.06258 2.38734 1.54508 0.553984C1.27982 1.00079 1.12891 1.52141 1.12891 2.07716C1.12891 3.12861 1.67255 4.05636 2.49739 4.59914C1.99311 4.58253 1.51883 4.44591 1.10362 4.21881V4.25666C1.10362 5.72444 2.16465 6.94943 3.57154 7.22823C3.31378 7.29654 3.04197 7.33439 2.76077 7.33439C2.56207 7.33439 2.36992 7.31501 2.18152 7.27808C2.5733 8.48276 3.70934 9.3588 5.05532 9.38282C4.00271 10.1952 2.67548 10.678 1.23391 10.678C0.985531 10.678 0.740878 10.6632 0.5 10.6364C1.86191 11.4977 3.47878 11.9999 5.21654 11.9999C10.8769 11.9999 13.971 7.3824 13.971 3.37787L13.9607 2.98554C14.5652 2.56087 15.0882 2.02731 15.4997 1.41989Z" fill="#1DA1F2"/>
</svg>
